<svg width="24" height="24" viewBox="0 0 24 24" fill="none" xmlns="http://www.w3.org/2000/svg">
<path fill-rule="evenodd" clip-rule="evenodd" d="M2.25 19C2.25 20.5188 3.48122 21.75 5 21.75L19 21.75C20.5188 21.75 21.75 20.5188 21.75 19L21.75 5C21.75 3.48122 20.5188 2.25 19 2.25H5C3.48122 2.25 2.25 3.48122 2.25 5V19ZM19 20.25C19.6904 20.25 20.25 19.6904 20.25 19V15.75L3.75 15.75L3.75 19C3.75 19.6904 4.30964 20.25 5 20.25L19 20.25ZM3.75 14.25L20.25 14.25V9.75L3.75 9.75L3.75 14.25ZM20.25 8.25V5C20.25 4.30965 19.6904 3.75 19 3.75L5 3.75C4.30965 3.75 3.75 4.30965 3.75 5L3.75 8.25L20.25 8.25Z" fill="black"/>
</svg>
