<svg width="24" height="24" viewBox="0 0 24 24" fill="none" xmlns="http://www.w3.org/2000/svg">
<path fill-rule="evenodd" clip-rule="evenodd" d="M2.25 5C2.25 3.48122 3.48122 2.25 5 2.25H19C20.5188 2.25 21.75 3.48122 21.75 5V19C21.75 20.5188 20.5188 21.75 19 21.75H5C3.48122 21.75 2.25 20.5188 2.25 19V5ZM3.75 5C3.75 4.30964 4.30964 3.75 5 3.75H11.25V8.25H3.75V5ZM3.75 9.75H11.25V14.25H3.75V9.75ZM20.25 14.25V9.75H12.75V14.25H20.25ZM12.75 15.75H20.25V19C20.25 19.6904 19.6904 20.25 19 20.25H12.75V15.75ZM11.25 15.75V20.25H5C4.30964 20.25 3.75 19.6904 3.75 19V15.75H11.25ZM12.75 8.25H20.25V5C20.25 4.30964 19.6904 3.75 19 3.75H12.75V8.25Z" fill="#007AFF"/>
</svg>
