<svg width="24" height="24" viewBox="0 0 24 24" fill="none" xmlns="http://www.w3.org/2000/svg">
<path fill-rule="evenodd" clip-rule="evenodd" d="M19 2.25H5C3.48122 2.25 2.25 3.48122 2.25 5V19C2.25 20.5188 3.48122 21.75 5 21.75H19C20.5188 21.75 21.75 20.5188 21.75 19V5C21.75 3.48122 20.5188 2.25 19 2.25ZM20.25 5C20.25 4.30964 19.6904 3.75 19 3.75L15.75 3.75L15.75 20.25H19C19.6904 20.25 20.25 19.6904 20.25 19V5ZM9.75 20.25H14.25L14.25 3.75L9.75 3.75L9.75 20.25ZM8.25 3.75L8.25 20.25H5C4.30964 20.25 3.75 19.6904 3.75 19L3.75 5C3.75 4.30964 4.30964 3.75 5 3.75L8.25 3.75Z" fill="black"/>
</svg>
