<svg width="29" height="28" viewBox="0 0 29 28" fill="none" xmlns="http://www.w3.org/2000/svg">
<path fill-rule="evenodd" clip-rule="evenodd" d="M5 6.5C5 5.5335 5.7835 4.75 6.75 4.75H22.75C23.7165 4.75 24.5 5.5335 24.5 6.5V7.5C24.5 8.4665 23.7165 9.25 22.75 9.25H6.75C5.7835 9.25 5 8.4665 5 7.5V6.5ZM6.75 6.25C6.61193 6.25 6.5 6.36193 6.5 6.5V7.5C6.5 7.63807 6.61193 7.75 6.75 7.75H22.75C22.8881 7.75 23 7.63807 23 7.5V6.5C23 6.36193 22.8881 6.25 22.75 6.25H6.75Z" fill="#A2ACB0"/>
<path fill-rule="evenodd" clip-rule="evenodd" d="M5 13.5C5 12.5335 5.7835 11.75 6.75 11.75H22.75C23.7165 11.75 24.5 12.5335 24.5 13.5V14.5C24.5 15.4665 23.7165 16.25 22.75 16.25H6.75C5.7835 16.25 5 15.4665 5 14.5V13.5ZM6.75 13.25C6.61193 13.25 6.5 13.3619 6.5 13.5V14.5C6.5 14.6381 6.61193 14.75 6.75 14.75H22.75C22.8881 14.75 23 14.6381 23 14.5V13.5C23 13.3619 22.8881 13.25 22.75 13.25H6.75Z" fill="#A2ACB0"/>
<path fill-rule="evenodd" clip-rule="evenodd" d="M6.75 18.75C5.7835 18.75 5 19.5335 5 20.5V21.5C5 22.4665 5.7835 23.25 6.75 23.25H22.75C23.7165 23.25 24.5 22.4665 24.5 21.5V20.5C24.5 19.5335 23.7165 18.75 22.75 18.75H6.75ZM6.5 20.5C6.5 20.3619 6.61193 20.25 6.75 20.25H22.75C22.8881 20.25 23 20.3619 23 20.5V21.5C23 21.6381 22.8881 21.75 22.75 21.75H6.75C6.61193 21.75 6.5 21.6381 6.5 21.5V20.5Z" fill="#A2ACB0"/>
</svg>
