<svg width="29" height="28" viewBox="0 0 29 28" fill="none" xmlns="http://www.w3.org/2000/svg">
<path fill-rule="evenodd" clip-rule="evenodd" d="M7.09998 16.1334C7.09998 14.541 8.39089 13.2501 9.98331 13.2501C11.5757 13.2501 12.8666 14.541 12.8666 16.1334C12.8666 16.6347 12.7387 17.1061 12.5137 17.5168H15.9866C15.7616 17.1061 15.6337 16.6347 15.6337 16.1334C15.6337 14.541 16.9246 13.2501 18.517 13.2501C20.1094 13.2501 21.4003 14.541 21.4003 16.1334C21.4003 17.7221 20.1154 19.0107 18.5281 19.0167L18.5171 19.0168H9.98376L9.97295 19.0167C8.38529 19.0111 7.09998 17.7224 7.09998 16.1334ZM9.98331 14.7501C9.21931 14.7501 8.59998 15.3694 8.59998 16.1334C8.59998 16.8974 9.21931 17.5167 9.98331 17.5167C10.7473 17.5167 11.3666 16.8974 11.3666 16.1334C11.3666 15.3694 10.7473 14.7501 9.98331 14.7501ZM18.517 14.7501C17.753 14.7501 17.1337 15.3694 17.1337 16.1334C17.1337 16.8974 17.753 17.5167 18.517 17.5167C19.281 17.5167 19.9003 16.8974 19.9003 16.1334C19.9003 15.3694 19.281 14.7501 18.517 14.7501Z" fill="#A2ACB0"/>
<path fill-rule="evenodd" clip-rule="evenodd" d="M5.71671 4.71674C4.12429 4.71674 2.83337 6.00765 2.83337 7.60007V20.4001C2.83337 21.9925 4.12429 23.2834 5.71671 23.2834H22.7834C24.3758 23.2834 25.6667 21.9925 25.6667 20.4001V7.60007C25.6667 6.00765 24.3758 4.71674 22.7834 4.71674C17.0945 4.71674 11.4056 4.71674 5.71671 4.71674ZM10.059 8.98404C9.73456 8.9975 9.42121 8.77904 9.32119 8.47077L8.79525 6.21674H19.6975L19.1744 8.38408L19.1708 8.39955C19.097 8.73649 18.7723 8.99159 18.4275 8.9836L18.4101 8.9834L10.0901 8.9834C10.0797 8.9834 10.0694 8.98361 10.059 8.98404ZM21.2406 6.21674L20.6342 8.72911C20.4047 9.75741 19.4557 10.5033 18.4023 10.4834L10.1041 10.4834C9.0957 10.5175 8.16527 9.84761 7.87784 8.88037C7.87359 8.86608 7.86977 8.85167 7.86639 8.83715L7.25496 6.21674H5.71671C4.95271 6.21674 4.33337 6.83607 4.33337 7.60007V20.4001C4.33337 21.1641 4.95271 21.7834 5.71671 21.7834H22.7834C23.5474 21.7834 24.1667 21.1641 24.1667 20.4001V7.60007C24.1667 6.83608 23.5474 6.21674 22.7834 6.21674H21.2406Z" fill="#A2ACB0"/>
</svg>
