<svg width="29" height="28" viewBox="0 0 29 28" fill="none" xmlns="http://www.w3.org/2000/svg">
<path fill-rule="evenodd" clip-rule="evenodd" d="M14.2501 2.00232C14.6643 2.00232 15.0001 2.33811 15.0001 2.75232V4.28076C16.2077 4.37392 17.3799 4.69077 18.4595 5.20761L19.2244 3.8842C19.4317 3.52559 19.8905 3.40292 20.2491 3.61021C20.6077 3.8175 20.7304 4.27626 20.5231 4.63487L19.7586 5.95749C20.2511 6.29481 20.7149 6.67896 21.1429 7.10704C21.5711 7.53516 21.9553 7.999 22.2926 8.49155L23.6156 7.72684C23.9742 7.51955 24.4329 7.64222 24.6402 8.00083C24.8475 8.35944 24.7248 8.8182 24.3662 9.02549L23.0425 9.79068C23.5592 10.8702 23.8761 12.0424 23.9692 13.2499H25.4977C25.9119 13.2499 26.2477 13.5857 26.2477 13.9999C26.2477 14.4141 25.9119 14.7499 25.4977 14.7499H23.9692C23.8761 15.9574 23.5593 17.1296 23.0425 18.2092L24.3662 18.9743C24.7248 19.1816 24.8475 19.6404 24.6402 19.999C24.4329 20.3576 23.9742 20.4803 23.6156 20.273L22.2927 19.5083C21.9553 20.0009 21.5711 20.4648 21.1429 20.8929C20.7149 21.321 20.2511 21.7052 19.7586 22.0425L20.5231 23.3651C20.7304 23.7237 20.6077 24.1824 20.2491 24.3897C19.8905 24.597 19.4317 24.4744 19.2244 24.1157L18.4595 22.7924C17.3799 23.3092 16.2077 23.6261 15.0001 23.7192V25.2477C15.0001 25.6619 14.6643 25.9977 14.2501 25.9977C13.8359 25.9977 13.5001 25.6619 13.5001 25.2477V23.7192C12.2922 23.6261 11.1196 23.3091 10.0397 22.792L9.27585 24.1153C9.06878 24.4741 8.6101 24.597 8.25136 24.39C7.89262 24.1829 7.76966 23.7242 7.97672 23.3655L8.74065 22.042C8.24843 21.7048 7.78489 21.3208 7.35704 20.8929C6.92892 20.4648 6.54474 20.001 6.20739 19.5084L4.88475 20.273C4.52613 20.4803 4.06738 20.3576 3.86009 19.999C3.6528 19.6404 3.77547 19.1816 4.13408 18.9743L5.45754 18.2093C4.94071 17.1297 4.62387 15.9575 4.53075 14.7499H3.00244C2.58823 14.7499 2.25244 14.4141 2.25244 13.9999C2.25244 13.5857 2.58823 13.2499 3.00244 13.2499H4.53076C4.62391 12.0423 4.94077 10.8701 5.4576 9.79053L4.13408 9.02549C3.77547 8.8182 3.6528 8.35944 3.86009 8.00083C4.06738 7.64222 4.52613 7.51955 4.88475 7.72684L6.20747 8.49142C6.5448 7.99891 6.92896 7.53512 7.35704 7.10704C7.7849 6.67917 8.24844 6.29519 8.74067 5.95799L7.97672 4.63446C7.76966 4.27572 7.89262 3.81704 8.25136 3.60998C8.6101 3.40291 9.06878 3.52587 9.27585 3.88461L10.0397 5.20799C11.1196 4.69089 12.2922 4.37389 13.5001 4.28074V2.75232C13.5001 2.33811 13.8359 2.00232 14.2501 2.00232ZM10.7922 21.4883C11.8661 21.9842 13.0444 22.2481 14.25 22.2481C16.4375 22.2481 18.5355 21.3791 20.0823 19.8323C21.4514 18.4632 22.2894 16.6624 22.464 14.7499H17.1545C17.0217 15.2643 16.7533 15.7389 16.3712 16.121C15.8087 16.6835 15.0457 16.9995 14.2502 16.9995C13.9761 16.9995 13.7059 16.962 13.4464 16.8898L10.7922 21.4883ZM12.1477 16.1393L9.49315 20.7383C9.11203 20.4692 8.75199 20.1666 8.4177 19.8323C6.87347 18.2881 6.00479 16.1946 6.00189 14.011L6.00197 13.9999L6.00189 13.9888C6.00485 11.8053 6.87351 9.71188 8.4177 8.1677C8.752 7.8334 9.11204 7.53075 9.49317 7.2617L12.1477 11.8607L12.1292 11.879C11.5667 12.4415 11.2507 13.2044 11.2507 14C11.2507 14.7955 11.5667 15.5584 12.1292 16.121C12.1354 16.1271 12.1415 16.1332 12.1477 16.1393ZM13.5385 15.3199C13.5261 15.3117 13.5133 15.3038 13.5003 15.2962C13.4875 15.2889 13.4746 15.2819 13.4615 15.2754C13.3638 15.2149 13.2725 15.1429 13.1899 15.0603C12.9087 14.7791 12.7507 14.3977 12.7507 14C12.7507 13.6023 12.9087 13.2209 13.1899 12.9396C13.2725 12.857 13.3638 12.7851 13.4615 12.7246C13.4746 12.7181 13.4875 12.7111 13.5003 12.7037C13.5133 12.6962 13.5261 12.6883 13.5386 12.6801C13.7553 12.5632 13.9995 12.5004 14.2502 12.5004C14.6479 12.5004 15.0293 12.6584 15.3105 12.9396C15.5886 13.2177 15.7462 13.5937 15.7497 13.9866L15.7496 13.9999L15.7497 14.0132C15.7462 14.4061 15.5886 14.7822 15.3105 15.0603C15.0293 15.3415 14.6479 15.4995 14.2502 15.4995C13.9995 15.4995 13.7553 15.4367 13.5385 15.3199ZM20.0823 8.1677C21.4513 9.53671 22.2894 11.3374 22.4639 13.2499H17.1545C17.0216 12.7355 16.7532 12.261 16.3712 11.879C15.8087 11.3165 15.0457 11.0004 14.2502 11.0004C13.9761 11.0004 13.7059 11.038 13.4464 11.1101L10.7922 6.51167C11.8661 6.01581 13.0444 5.75188 14.25 5.75188C16.4375 5.75188 18.5355 6.62088 20.0823 8.1677Z" fill="#A2ACB0"/>
</svg>
