<svg width="65" height="10" viewBox="0 0 65 10" fill="none" xmlns="http://www.w3.org/2000/svg">
<path d="M4.2307 8.19336C3.49665 8.19336 2.86286 8.02865 2.32933 7.69922C1.79939 7.36979 1.38939 6.90251 1.09935 6.29736C0.812895 5.68864 0.669666 4.96712 0.669666 4.13281V4.12207C0.669666 3.28418 0.812895 2.56266 1.09935 1.95752C1.38939 1.3488 1.79939 0.87972 2.32933 0.550293C2.85928 0.220866 3.49128 0.0561523 4.22533 0.0561523C4.81257 0.0561523 5.34252 0.172526 5.81517 0.405273C6.28783 0.63444 6.67276 0.953125 6.96996 1.36133C7.26716 1.76595 7.4462 2.23145 7.50707 2.75781L7.5017 2.80078H6.14818L6.14281 2.77393C6.07836 2.46956 5.95661 2.20459 5.77758 1.979C5.59854 1.74984 5.37653 1.57259 5.11156 1.44727C4.84659 1.31836 4.55118 1.25391 4.22533 1.25391C3.78848 1.25391 3.40892 1.37028 3.08666 1.60303C2.76439 1.83577 2.51553 2.16699 2.34008 2.59668C2.1682 3.02279 2.08226 3.52946 2.08226 4.1167V4.12744C2.08226 4.71468 2.1682 5.22314 2.34008 5.65283C2.51553 6.08252 2.76439 6.41374 3.08666 6.64648C3.40892 6.87923 3.79027 6.99561 4.2307 6.99561C4.56013 6.99561 4.85554 6.93831 5.11693 6.82373C5.38191 6.70915 5.60212 6.54801 5.77758 6.34033C5.95661 6.12907 6.07836 5.882 6.14281 5.59912L6.15355 5.56689H7.50707V5.60986C7.43903 6.12549 7.25821 6.57666 6.96459 6.96338C6.67097 7.3501 6.29141 7.65267 5.82592 7.87109C5.36042 8.08594 4.82868 8.19336 4.2307 8.19336ZM10.6823 8.09668C10.3135 8.09668 9.98227 8.02507 9.68865 7.88184C9.39861 7.73861 9.16945 7.5363 9.00115 7.2749C8.83644 7.00993 8.75408 6.6984 8.75408 6.34033V6.32959C8.75408 5.8068 8.94565 5.39502 9.32879 5.09424C9.71551 4.79346 10.2669 4.62337 10.9831 4.58398L13.153 4.44971V5.33057L11.1711 5.45947C10.7951 5.48096 10.5176 5.55973 10.3386 5.6958C10.1595 5.83187 10.07 6.02165 10.07 6.26514V6.27588C10.07 6.52653 10.1649 6.72168 10.3547 6.86133C10.548 7.00098 10.7933 7.0708 11.0905 7.0708C11.3591 7.0708 11.599 7.01709 11.8102 6.90967C12.0215 6.80225 12.188 6.65723 12.3097 6.47461C12.4315 6.28841 12.4924 6.07894 12.4924 5.84619V3.98779C12.4924 3.69417 12.3993 3.47038 12.2131 3.31641C12.0269 3.15885 11.7512 3.08008 11.3859 3.08008C11.0816 3.08008 10.8327 3.13379 10.6393 3.24121C10.446 3.34505 10.3153 3.49365 10.2472 3.68701L10.2419 3.7085H8.97967L8.98504 3.66016C9.02801 3.33073 9.15691 3.04248 9.37176 2.79541C9.5866 2.54834 9.87127 2.35677 10.2258 2.2207C10.5803 2.08464 10.9885 2.0166 11.4504 2.0166C11.9588 2.0166 12.3885 2.09538 12.7394 2.25293C13.0903 2.4069 13.3571 2.63249 13.5397 2.92969C13.7223 3.22331 13.8137 3.57601 13.8137 3.98779V8H12.4924V7.19434H12.4011C12.2936 7.38053 12.154 7.54167 11.9821 7.67773C11.8138 7.8138 11.6205 7.91764 11.402 7.98926C11.1836 8.06087 10.9437 8.09668 10.6823 8.09668ZM16.86 8H15.5817V2.12939H17.2843L19.0192 6.22217H19.1105L20.8561 2.12939H22.5265V8H21.2482V3.99316H21.1461L19.5294 7.73682H18.5734L16.962 3.99316H16.86V8ZM26.8619 8.11816C26.2782 8.11816 25.7751 7.99642 25.3526 7.75293C24.9301 7.50586 24.6042 7.15495 24.3751 6.7002C24.1495 6.24544 24.0367 5.70117 24.0367 5.06738V5.05664C24.0367 4.43001 24.1513 3.88932 24.3804 3.43457C24.6096 2.97624 24.9337 2.62533 25.3526 2.38184C25.7751 2.13835 26.2782 2.0166 26.8619 2.0166C27.4455 2.0166 27.9468 2.13835 28.3658 2.38184C28.7883 2.62533 29.1142 2.97445 29.3433 3.4292C29.5725 3.88395 29.6871 4.42643 29.6871 5.05664V5.06738C29.6871 5.70117 29.5725 6.24544 29.3433 6.7002C29.1177 7.15495 28.7937 7.50586 28.3712 7.75293C27.9522 7.99642 27.4491 8.11816 26.8619 8.11816ZM26.8619 7.0332C27.1698 7.0332 27.4312 6.95622 27.6461 6.80225C27.8645 6.64469 28.031 6.4209 28.1456 6.13086C28.2601 5.83724 28.3174 5.48454 28.3174 5.07275V5.06201C28.3174 4.64665 28.2601 4.29395 28.1456 4.00391C28.031 3.71029 27.8645 3.48649 27.6461 3.33252C27.4312 3.17497 27.1698 3.09619 26.8619 3.09619C26.5539 3.09619 26.2907 3.17497 26.0723 3.33252C25.8539 3.48649 25.6874 3.71029 25.5728 4.00391C25.4582 4.29395 25.4009 4.64665 25.4009 5.06201V5.07275C25.4009 5.48454 25.4582 5.83724 25.5728 6.13086C25.6874 6.42448 25.8521 6.64827 26.067 6.80225C26.2854 6.95622 26.5504 7.0332 26.8619 7.0332ZM31.1919 8V2.12939H36.2891V8H34.9517V3.16602H32.5293V8H31.1919ZM38.0839 8V2.12939H39.4052V6.06104H40.0981L39.185 6.57666L41.9887 2.12939H43.3046V8H41.9887V4.04688H41.2958L42.1982 3.52588L39.4052 8H38.0839ZM47.6185 8.11816C47.0277 8.11816 46.5228 7.99642 46.1039 7.75293C45.6849 7.50944 45.3645 7.15853 45.1425 6.7002C44.9205 6.24186 44.8095 5.69401 44.8095 5.05664V5.0459C44.8095 4.41211 44.9205 3.86963 45.1425 3.41846C45.3645 2.96729 45.6849 2.62174 46.1039 2.38184C46.5228 2.13835 47.0259 2.0166 47.6132 2.0166C48.118 2.0166 48.5513 2.10433 48.913 2.27979C49.2782 2.45166 49.5665 2.69157 49.7777 2.99951C49.9926 3.30387 50.125 3.66016 50.1752 4.06836V4.08984H48.913L48.9076 4.07373C48.8467 3.78727 48.7071 3.55273 48.4887 3.37012C48.2738 3.1875 47.9838 3.09619 47.6185 3.09619C47.3142 3.09619 47.0528 3.17318 46.8344 3.32715C46.6195 3.48112 46.4548 3.70312 46.3402 3.99316C46.2256 4.2832 46.1683 4.63411 46.1683 5.0459V5.05664C46.1683 5.47201 46.2256 5.82829 46.3402 6.12549C46.4584 6.41911 46.6249 6.64469 46.8397 6.80225C47.0546 6.95622 47.3142 7.0332 47.6185 7.0332C47.9659 7.0332 48.2452 6.95443 48.4564 6.79688C48.6713 6.63932 48.8199 6.40658 48.9022 6.09863L48.913 6.07715L50.1698 6.07178L50.1644 6.12012C50.1 6.51758 49.9603 6.8667 49.7455 7.16748C49.5342 7.46826 49.2513 7.7028 48.8969 7.87109C48.5424 8.03581 48.1163 8.11816 47.6185 8.11816ZM54.1077 8.11816C53.5241 8.11816 53.0228 7.99463 52.6038 7.74756C52.1885 7.50049 51.868 7.14958 51.6424 6.69482C51.4168 6.24007 51.304 5.70117 51.304 5.07812V5.07275C51.304 4.45687 51.415 3.91976 51.637 3.46143C51.8626 3.00309 52.1813 2.6486 52.5931 2.39795C53.0049 2.14372 53.4883 2.0166 54.0433 2.0166C54.6019 2.0166 55.0817 2.14014 55.4827 2.38721C55.8873 2.6307 56.1989 2.97266 56.4173 3.41309C56.6357 3.85352 56.7449 4.36914 56.7449 4.95996V5.40039H51.9754V4.50342H56.0897L55.4559 5.34131V4.80957C55.4559 4.41927 55.3968 4.09521 55.2786 3.8374C55.1605 3.57959 54.9957 3.38623 54.7845 3.25732C54.5768 3.12842 54.3351 3.06396 54.0594 3.06396C53.7837 3.06396 53.5384 3.132 53.3235 3.26807C53.1123 3.40055 52.944 3.59749 52.8187 3.85889C52.6969 4.1167 52.636 4.43359 52.636 4.80957V5.34668C52.636 5.70833 52.6969 6.01807 52.8187 6.27588C52.9404 6.53011 53.1123 6.72705 53.3343 6.8667C53.5599 7.00277 53.8266 7.0708 54.1346 7.0708C54.3745 7.0708 54.5804 7.03678 54.7523 6.96875C54.9277 6.89714 55.0692 6.81299 55.1766 6.71631C55.284 6.61605 55.3592 6.52116 55.4022 6.43164L55.4183 6.39404H56.6859L56.6751 6.44238C56.6286 6.63216 56.5426 6.82552 56.4173 7.02246C56.2956 7.21582 56.129 7.39665 55.9178 7.56494C55.7101 7.72965 55.4559 7.86393 55.1551 7.96777C54.8543 8.06803 54.5052 8.11816 54.1077 8.11816ZM63.3416 2.12939V8H58.2444V2.12939H59.5818V6.96875H62.0042V2.12939H63.3416ZM63.0032 9.53076V8H62.0095V6.96875H64.2439V9.53076H63.0032Z" fill="#A2ACB0"/>
</svg>
