<svg width="20" height="22" viewBox="0 0 20 22" fill="none" xmlns="http://www.w3.org/2000/svg">
<path d="M8 9.25C8.41421 9.25 8.75 9.58579 8.75 10V16C8.75 16.4142 8.41421 16.75 8 16.75C7.58579 16.75 7.25 16.4142 7.25 16V10C7.25 9.58579 7.58579 9.25 8 9.25Z" fill="#FF3B30"/>
<path d="M12.75 10C12.75 9.58579 12.4142 9.25 12 9.25C11.5858 9.25 11.25 9.58579 11.25 10V16C11.25 16.4142 11.5858 16.75 12 16.75C12.4142 16.75 12.75 16.4142 12.75 16V10Z" fill="#FF3B30"/>
<path fill-rule="evenodd" clip-rule="evenodd" d="M5.25 4.25V3C5.25 2.25608 5.61441 1.57493 6.09467 1.09467C6.57493 0.61441 7.25608 0.25 8 0.25H12C12.7439 0.25 13.4251 0.61441 13.9053 1.09467C14.3856 1.57493 14.75 2.25608 14.75 3V4.25H19C19.4142 4.25 19.75 4.58579 19.75 5C19.75 5.41421 19.4142 5.75 19 5.75H17.75V19C17.75 19.7439 17.3856 20.4251 16.9053 20.9053C16.4251 21.3856 15.7439 21.75 15 21.75H5C4.25608 21.75 3.57493 21.3856 3.09467 20.9053C2.61441 20.4251 2.25 19.7439 2.25 19V5.75H1C0.585786 5.75 0.25 5.41421 0.25 5C0.25 4.58579 0.585786 4.25 1 4.25H5.25ZM6.75 3C6.75 2.74392 6.88559 2.42507 7.15533 2.15533C7.42507 1.88559 7.74392 1.75 8 1.75H12C12.2561 1.75 12.5749 1.88559 12.8447 2.15533C13.1144 2.42507 13.25 2.74392 13.25 3V4.25H6.75V3ZM3.75 5.75V19C3.75 19.2561 3.88559 19.5749 4.15533 19.8447C4.42507 20.1144 4.74392 20.25 5 20.25H15C15.2561 20.25 15.5749 20.1144 15.8447 19.8447C16.1144 19.5749 16.25 19.2561 16.25 19V5.75H3.75Z" fill="#FF3B30"/>
</svg>
