<svg width="17" height="16" viewBox="0 0 17 16" fill="none" xmlns="http://www.w3.org/2000/svg">
<path d="M9.25 5C9.25 4.58579 8.91421 4.25 8.5 4.25C8.08579 4.25 7.75 4.58579 7.75 5V8C7.75 8.41421 8.08579 8.75 8.5 8.75H11.5C11.9142 8.75 12.25 8.41421 12.25 8C12.25 7.58579 11.9142 7.25 11.5 7.25H9.25V5Z" fill="#A2ACB0"/>
<path fill-rule="evenodd" clip-rule="evenodd" d="M8.5 1.25C4.77208 1.25 1.75 4.27208 1.75 8C1.75 11.7279 4.77208 14.75 8.5 14.75C12.2279 14.75 15.25 11.7279 15.25 8C15.25 4.27208 12.2279 1.25 8.5 1.25ZM3.25 8C3.25 5.10051 5.60051 2.75 8.5 2.75C11.3995 2.75 13.75 5.10051 13.75 8C13.75 10.8995 11.3995 13.25 8.5 13.25C5.60051 13.25 3.25 10.8995 3.25 8Z" fill="#A2ACB0"/>
</svg>
