<svg width="17" height="16" viewBox="0 0 17 16" fill="none" xmlns="http://www.w3.org/2000/svg">
<path fill-rule="evenodd" clip-rule="evenodd" d="M4.19835 3.18127C3.34975 4.87448 2.61036 6.63245 1.81881 8.35323C1.64571 8.72954 1.81045 9.17492 2.18676 9.34802C2.56306 9.52112 3.00845 9.35639 3.18155 8.98008L3.59405 8.08334H6.73965L7.15215 8.98008C7.32525 9.35639 7.77063 9.52112 8.14694 9.34802C8.52325 9.17492 8.68798 8.72954 8.51488 8.35323C7.72313 6.632 6.98417 4.87491 6.13535 3.18127C5.74355 2.39954 4.59015 2.39954 4.19835 3.18127ZM6.04966 6.58334L5.16685 4.66417L4.28404 6.58334H6.04966Z" fill="#A2ACB0"/>
<path d="M9.75 4.00009C9.75 3.58588 10.0858 3.25009 10.5 3.25009H14.5C14.9142 3.25009 15.25 3.58588 15.25 4.00009C15.25 4.4143 14.9142 4.75009 14.5 4.75009H10.5C10.0858 4.75009 9.75 4.4143 9.75 4.00009Z" fill="#A2ACB0"/>
<path d="M9.75 8.00009C9.75 7.58588 10.0858 7.25009 10.5 7.25009H14.5C14.9142 7.25009 15.25 7.58588 15.25 8.00009C15.25 8.4143 14.9142 8.75009 14.5 8.75009H10.5C10.0858 8.75009 9.75 8.4143 9.75 8.00009Z" fill="#A2ACB0"/>
<path d="M1.75 12.0001C1.75 11.5859 2.08579 11.2501 2.5 11.2501H14.5C14.9142 11.2501 15.25 11.5859 15.25 12.0001C15.25 12.4143 14.9142 12.7501 14.5 12.7501H2.5C2.08579 12.7501 1.75 12.4143 1.75 12.0001Z" fill="#A2ACB0"/>
</svg>
